HIERARCHY
ROOT root
{
	OFFSET	0	13.1	24.9
	CHANNELS 6  Xposition Yposition Zposition Xrotation Yrotation Zrotation
	JOINT spine_1
	{
		OFFSET	0	9.99999	0
		CHANNELS 3  Xrotation Yrotation Zrotation
		JOINT spine_2
		{
			OFFSET	0	112	-10
			CHANNELS 3  Xrotation Yrotation Zrotation
			JOINT spine_3
			{
				OFFSET	0	206.5	19.3
				CHANNELS 3  Xrotation Yrotation Zrotation
				JOINT spine_4
				{
					OFFSET	0	110.4	14.6
					CHANNELS 3  Xrotation Yrotation Zrotation
					JOINT neck_1
					{
						OFFSET	0	71.8	-50.3
						CHANNELS 3  Xrotation Yrotation Zrotation
						JOINT neck_2
						{
							OFFSET	0	86.2	-25.8
							CHANNELS 3  Xrotation Yrotation Zrotation
							JOINT head_ee
							{
								OFFSET	0	179.8	-8.7
								CHANNELS 3  Xrotation Yrotation Zrotation
								End Site
								{
									OFFSET	1	0	0
								}
							}
						}
					}
					JOINT left_clavicle
					{
						OFFSET	-43.2	22.4	-70.8
						CHANNELS 3  Xrotation Yrotation Zrotation
						JOINT left_shoulder
						{
							OFFSET	-93.9	-5.79999	48.7
							CHANNELS 3  Xrotation Yrotation Zrotation
							JOINT left_elbow
							{
								OFFSET	-291.4	-30.8	15.2
								CHANNELS 3  Xrotation Yrotation Zrotation
								JOINT left_lowarm_twist
								{
									OFFSET	-110.7	-3.89999	13.6
									CHANNELS 3  Xrotation Yrotation Zrotation
									JOINT left_hand
									{
										OFFSET	-110.7	-3.89999	13.6
										CHANNELS 3  Xrotation Yrotation Zrotation
										JOINT left_ee
										{
											OFFSET	-80.8	-5.10001	12.1
											CHANNELS 3  Xrotation Yrotation Zrotation
											End Site
											{
												OFFSET	1	0	0
											}
										}
									}
								}
							}
						}
					}
					JOINT right_clavicle
					{
						OFFSET	43.2	22.4	-70.8
						CHANNELS 3  Xrotation Yrotation Zrotation
						JOINT right_shoulder
						{
							OFFSET	93.9	-5.79999	48.7
							CHANNELS 3  Xrotation Yrotation Zrotation
							JOINT right_elbow
							{
								OFFSET	291.4	-30.8	15.2
								CHANNELS 3  Xrotation Yrotation Zrotation
								JOINT right_lowarm_twist
								{
									OFFSET	110.7	-3.89999	13.6
									CHANNELS 3  Xrotation Yrotation Zrotation
									JOINT right_hand
									{
										OFFSET	110.7	-3.89999	13.6
										CHANNELS 3  Xrotation Yrotation Zrotation
										JOINT right_ee
										{
											OFFSET	80.8	-5.10001	12.1
											CHANNELS 3  Xrotation Yrotation Zrotation
											End Site
											{
												OFFSET	1	0	0
											}
										}
									}
								}
							}
						}
					}
				}
			}
		}
	}
	JOINT left_hip
	{
		OFFSET	-82.8	-127.5	0.300001
		CHANNELS 3  Xrotation Yrotation Zrotation
		JOINT left_knee
		{
			OFFSET	-28.2	-396.7	2.2
			CHANNELS 3  Xrotation Yrotation Zrotation
			JOINT left_ankle
			{
				OFFSET	-11.7	-411.3	35.4
				CHANNELS 3  Xrotation Yrotation Zrotation
				JOINT left_toes
				{
					OFFSET	0	-60	-88.6
					CHANNELS 3  Xrotation Yrotation Zrotation
					JOINT left_foot_ee
					{
						OFFSET	-22.5	-16.5	-42.2
						CHANNELS 3  Xrotation Yrotation Zrotation
						End Site
						{
							OFFSET	1	0	0
						}
					}
				}
			}
		}
	}
	JOINT right_hip
	{
		OFFSET	82.8	-127.5	0.300001
		CHANNELS 3  Xrotation Yrotation Zrotation
		JOINT right_knee
		{
			OFFSET	28.2	-396.7	2.2
			CHANNELS 3  Xrotation Yrotation Zrotation
			JOINT right_ankle
			{
				OFFSET	11.7	-411.3	35.4
				CHANNELS 3  Xrotation Yrotation Zrotation
				JOINT right_toes
				{
					OFFSET	0	-60	-88.6
					CHANNELS 3  Xrotation Yrotation Zrotation
					JOINT right_foot_ee
					{
						OFFSET	22.5	-16.5	-42.2
						CHANNELS 3  Xrotation Yrotation Zrotation
						End Site
						{
							OFFSET	1	0	0
						}
					}
				}
			}
		}
	}
}
MOTION
Frames: 5
Frame Time: 0.02
1707.01 751.845 -600.501 170.693 -72.9401 170.433 -0.118689 0.131039 1.00922 -0.118125 0.0665572 1.01551 -0.11664 -0.150428 1.00652 -0.118054 0.0104118 1.01764 -2.46783 7.55972 -3.05992 -2.2908 16.0949 -2.17965 -0.0 0.0 -0.0 -0.964549 20.3921 0.971024 -17.5 -33.9808 68.8806 0.687657 -18.8112 0.113911 -85.1319 -8.46841 5.18132 0.756972 7.19568 7.94547 -0.0 0.0 -0.0 5.9184 22.1918 -10.2323 -9.5879 10.1697 -65.0316 2.80052 54.2049 -1.43346 15.5811 -0.28349 1.96404 1.48343 2.7143 -8.8539 0.0 0.0 0.0 16.3993 22.7267 -11.7352 -27.7916 0.122297 4.22157 3.84175 10.1183 -0.556961 -6.14085 0.0 0.0 -0.0 0.0 -0.0 13.6598 13.6036 -5.4312 -12.2463 -0.30744 -1.85067 8.12571 3.86925 1.18766 -32.3507 0.0 0.0 0.0 0.0 0.0 
1709.36 751.42 -603.518 170.739 -72.7792 170.623 -0.119049 0.106208 0.982375 -0.118513 0.043485 0.987142 -0.117485 -0.166971 0.973891 -0.118809 -0.0110758 0.988037 -2.90514 7.35082 -3.8217 -2.7162 16.326 -2.94659 -0.0 0.0 -0.0 -0.807326 20.2529 1.18137 -17.7681 -34.1338 69.2457 0.686998 -18.7944 0.113699 -85.2186 -8.47924 5.17916 0.485225 7.46238 6.2697 -0.0 0.0 -0.0 5.43427 23.4383 -9.06225 -9.83525 10.1262 -65.4967 2.902 55.166 -1.51627 16.9921 -0.282599 2.14425 1.64694 1.85999 -10.3179 0.0 0.0 0.0 16.3515 23.1875 -11.2614 -26.3657 0.166024 4.00711 8.70502 11.3927 -1.24499 -6.66442 0.0 0.0 -0.0 0.0 -0.0 12.7804 13.0912 -5.72408 -10.9908 -0.294217 -1.65848 9.90975 2.09889 1.43069 -30.5748 0.0 0.0 0.0 0.0 0.0 
1712.85 751.268 -605.491 170.145 -72.6403 170.182 -0.228607 0.0789989 0.97187 -0.228082 0.0169992 0.974927 -0.227519 -0.192102 0.955967 -0.228792 -0.0387212 0.974306 -3.21166 7.19966 -4.36298 -3.01298 16.4781 -3.48996 -0.0 0.0 -0.0 -0.68967 20.0413 1.32549 -17.9283 -34.2828 69.4899 0.686764 -18.7885 0.113623 -85.2791 -8.48679 5.17764 0.293431 7.66143 5.09773 -0.0 0.0 -0.0 5.10181 24.2464 -8.26072 -10.324 10.1216 -66.0154 2.96513 55.7414 -1.56827 17.9715 -0.27937 2.26931 1.76106 1.23223 -11.3527 0.0 0.0 0.0 16.1207 23.5432 -10.7925 -25.2492 0.196525 3.83849 12.1276 12.27 -1.71611 -7.02085 0.0 0.0 -0.0 0.0 -0.0 12.1898 12.7751 -6.21584 -10.1052 -0.282359 -1.52311 11.1668 0.864233 1.599 -29.3189 0.0 0.0 0.0 0.0 0.0 
1718.89 749.306 -604.412 168.719 -72.2189 169.107 -0.263252 0.05885 0.95756 -0.262742 -0.00219847 0.959364 -0.26252 -0.208097 0.936528 -0.263739 -0.0575852 0.957637 -3.53224 6.99508 -4.93644 -3.32316 16.5519 -4.07063 -0.0 0.0 -0.0 -0.571282 19.8048 1.46884 -17.9242 -34.4989 69.6369 0.686633 -18.7852 0.113581 -85.3207 -8.49199 5.17659 0.180412 7.77439 4.40765 -0.0 0.0 -0.0 4.84245 24.9354 -7.62837 -10.5119 10.2068 -66.2726 3.0099 56.1394 -1.60536 18.6571 -0.275839 2.35681 1.78458 0.441078 -11.8331 0.0 0.0 0.0 16.0373 23.7757 -10.7959 -21.6889 0.271747 3.2974 12.6958 13.9861 -1.7979 -7.78369 0.0 0.0 -0.0 0.0 -0.0 11.2183 12.7011 -6.00248 -9.81411 -0.278004 -1.47866 12.0199 0.713122 1.71489 -28.0126 0.0 0.0 0.0 0.0 0.0 
1724.02 752.355 -607.673 169.05 -72.5871 169.763 -0.336822 -0.0595203 0.831922 -0.336443 -0.112335 0.826449 -0.337917 -0.288169 0.782688 -0.338736 -0.160946 0.818373 -3.39906 6.76663 -5.69764 -3.15353 16.7211 -4.92208 -0.0 0.0 -0.0 -0.327755 19.236 1.75855 -18.1486 -34.7712 69.3862 0.663268 -18.1887 0.106173 -85.1747 -8.47375 5.18026 0.156736 7.12406 3.98975 -0.0 0.0 -0.0 4.69841 25.2074 -7.28794 -10.3393 10.2795 -66.517 2.87873 54.9496 -1.4972 18.7669 -0.275176 2.37081 1.69273 -0.510014 -11.587 0.0 0.0 0.0 14.5297 26.1848 -11.0688 -18.8228 0.307789 2.85915 10.3678 16.4209 -1.48835 -7.25943 0.0 0.0 -0.0 0.0 -0.0 11.3156 12.6219 -5.93755 -9.65446 -0.27552 -1.45429 11.2463 1.40774 1.61231 -26.984 0.0 0.0 0.0 0.0 0.0 
